<mxfile host="app.diagrams.net" modified="2023-05-25T09:12:15.188Z" agent="Mozilla/5.0 (Windows NT 10.0; Win64; x64) AppleWebKit/537.36 (KHTML, like Gecko) Chrome/113.0.0.0 Safari/537.36" etag="I2BvmXyDA5SlHTR35Le6" version="21.3.3" type="github">
  <diagram name="Page-1" id="l0SQyd_m2lvOKnKboJc1">
    <mxGraphModel dx="806" dy="1114" grid="1" gridSize="10" guides="1" tooltips="1" connect="1" arrows="1" fold="1" page="1" pageScale="1" pageWidth="850" pageHeight="1100" math="0" shadow="0">
      <root>
        <mxCell id="0" />
        <mxCell id="1" parent="0" />
        <mxCell id="5hcufTHVU9KcvH70T_6z-2" value="Preguntas" style="whiteSpace=wrap;html=1;aspect=fixed;" vertex="1" parent="1">
          <mxGeometry x="240" y="210" width="80" height="80" as="geometry" />
        </mxCell>
        <mxCell id="5hcufTHVU9KcvH70T_6z-7" style="edgeStyle=orthogonalEdgeStyle;rounded=0;orthogonalLoop=1;jettySize=auto;html=1;entryX=0.5;entryY=0;entryDx=0;entryDy=0;" edge="1" parent="1" source="5hcufTHVU9KcvH70T_6z-3" target="5hcufTHVU9KcvH70T_6z-2">
          <mxGeometry relative="1" as="geometry" />
        </mxCell>
        <mxCell id="5hcufTHVU9KcvH70T_6z-10" style="edgeStyle=orthogonalEdgeStyle;rounded=0;orthogonalLoop=1;jettySize=auto;html=1;entryX=0.6;entryY=0;entryDx=0;entryDy=0;entryPerimeter=0;" edge="1" parent="1" source="5hcufTHVU9KcvH70T_6z-3" target="5hcufTHVU9KcvH70T_6z-4">
          <mxGeometry relative="1" as="geometry" />
        </mxCell>
        <mxCell id="5hcufTHVU9KcvH70T_6z-3" value="Formularios" style="rounded=0;whiteSpace=wrap;html=1;" vertex="1" parent="1">
          <mxGeometry x="330" y="80" width="120" height="60" as="geometry" />
        </mxCell>
        <mxCell id="5hcufTHVU9KcvH70T_6z-4" value="Encuestas" style="whiteSpace=wrap;html=1;aspect=fixed;" vertex="1" parent="1">
          <mxGeometry x="480" y="210" width="80" height="80" as="geometry" />
        </mxCell>
      </root>
    </mxGraphModel>
  </diagram>
</mxfile>
